<svg xmlns="http://www.w3.org/2000/svg" xmlns:xlink="http://www.w3.org/1999/xlink" width="500" zoomAndPan="magnify" viewBox="0 0 375 374.999991" height="500" preserveAspectRatio="xMidYMid meet" version="1.0"><defs><clipPath id="75291d77ff"><path d="M 37.5 37.5 L 335.25 37.5 L 335.25 337.5 L 37.5 337.5 Z M 37.5 37.5 " clip-rule="nonzero"/></clipPath></defs><path fill="#57af0f" d="M 85.027344 211.199219 L 108.734375 211.199219 C 112.023438 211.199219 114.6875 208.53125 114.6875 205.246094 L 114.6875 181.539062 C 114.6875 178.25 112.023438 175.585938 108.734375 175.585938 L 85.027344 175.585938 C 81.742188 175.585938 79.074219 178.25 79.074219 181.539062 L 79.074219 205.246094 C 79.074219 208.53125 81.742188 211.199219 85.027344 211.199219 Z M 85.027344 211.199219 " fill-opacity="1" fill-rule="nonzero"/><path fill="#57af0f" d="M 85.027344 260.210938 L 108.734375 260.210938 C 112.023438 260.210938 114.6875 257.546875 114.6875 254.257812 L 114.6875 230.550781 C 114.6875 227.261719 112.023438 224.597656 108.734375 224.597656 L 85.027344 224.597656 C 81.742188 224.597656 79.074219 227.261719 79.074219 230.550781 L 79.074219 254.257812 C 79.074219 257.546875 81.742188 260.210938 85.027344 260.210938 Z M 85.027344 260.210938 " fill-opacity="1" fill-rule="nonzero"/><path fill="#57af0f" d="M 85.027344 309.222656 L 108.734375 309.222656 C 112.023438 309.222656 114.6875 306.558594 114.6875 303.269531 L 114.6875 279.5625 C 114.6875 276.273438 112.023438 273.609375 108.734375 273.609375 L 85.027344 273.609375 C 81.742188 273.609375 79.074219 276.273438 79.074219 279.5625 L 79.074219 303.269531 C 79.074219 306.558594 81.742188 309.222656 85.027344 309.222656 Z M 85.027344 309.222656 " fill-opacity="1" fill-rule="nonzero"/><path fill="#57af0f" d="M 144.8125 211.199219 L 168.519531 211.199219 C 171.804688 211.199219 174.472656 208.53125 174.472656 205.246094 L 174.472656 181.539062 C 174.472656 178.25 171.804688 175.585938 168.519531 175.585938 L 144.8125 175.585938 C 141.523438 175.585938 138.859375 178.25 138.859375 181.539062 L 138.859375 205.246094 C 138.859375 208.53125 141.523438 211.199219 144.8125 211.199219 Z M 144.8125 211.199219 " fill-opacity="1" fill-rule="nonzero"/><path fill="#57af0f" d="M 144.8125 260.210938 L 168.519531 260.210938 C 171.804688 260.210938 174.472656 257.546875 174.472656 254.257812 L 174.472656 230.550781 C 174.472656 227.261719 171.804688 224.597656 168.519531 224.597656 L 144.8125 224.597656 C 141.523438 224.597656 138.859375 227.261719 138.859375 230.550781 L 138.859375 254.257812 C 138.859375 257.546875 141.523438 260.210938 144.8125 260.210938 Z M 144.8125 260.210938 " fill-opacity="1" fill-rule="nonzero"/><path fill="#57af0f" d="M 144.8125 309.222656 L 168.519531 309.222656 C 171.804688 309.222656 174.472656 306.558594 174.472656 303.269531 L 174.472656 279.5625 C 174.472656 276.273438 171.804688 273.609375 168.519531 273.609375 L 144.8125 273.609375 C 141.523438 273.609375 138.859375 276.273438 138.859375 279.5625 L 138.859375 303.269531 C 138.859375 306.558594 141.523438 309.222656 144.8125 309.222656 Z M 144.8125 309.222656 " fill-opacity="1" fill-rule="nonzero"/><path fill="#57af0f" d="M 204.59375 211.199219 L 228.300781 211.199219 C 231.589844 211.199219 234.253906 208.53125 234.253906 205.246094 L 234.253906 181.539062 C 234.253906 178.25 231.589844 175.585938 228.300781 175.585938 L 204.59375 175.585938 C 201.308594 175.585938 198.644531 178.25 198.644531 181.539062 L 198.644531 205.246094 C 198.640625 208.53125 201.308594 211.199219 204.59375 211.199219 Z M 204.59375 211.199219 " fill-opacity="1" fill-rule="nonzero"/><path fill="#57af0f" d="M 228.300781 273.609375 L 204.59375 273.609375 C 201.308594 273.609375 198.644531 276.273438 198.644531 279.5625 L 198.644531 303.269531 C 198.644531 306.554688 201.308594 309.222656 204.59375 309.222656 L 228.300781 309.222656 C 231.589844 309.222656 234.253906 306.558594 234.253906 303.269531 L 234.253906 279.5625 C 234.253906 276.273438 231.589844 273.609375 228.300781 273.609375 Z M 228.300781 273.609375 " fill-opacity="1" fill-rule="nonzero"/><path fill="#57af0f" d="M 264.378906 211.199219 L 288.085938 211.199219 C 291.371094 211.199219 294.039062 208.53125 294.039062 205.246094 L 294.039062 181.539062 C 294.039062 178.25 291.371094 175.585938 288.085938 175.585938 L 264.378906 175.585938 C 261.089844 175.585938 258.425781 178.25 258.425781 181.539062 L 258.425781 205.246094 C 258.425781 208.53125 261.089844 211.199219 264.378906 211.199219 Z M 264.378906 211.199219 " fill-opacity="1" fill-rule="nonzero"/><path fill="#57af0f" d="M 264.378906 260.210938 L 288.085938 260.210938 C 291.371094 260.210938 294.039062 257.546875 294.039062 254.257812 L 294.039062 230.550781 C 294.039062 227.261719 291.371094 224.597656 288.085938 224.597656 L 264.378906 224.597656 C 261.089844 224.597656 258.425781 227.261719 258.425781 230.550781 L 258.425781 254.257812 C 258.425781 257.546875 261.089844 260.210938 264.378906 260.210938 Z M 264.378906 260.210938 " fill-opacity="1" fill-rule="nonzero"/><g clip-path="url(#75291d77ff)"><path fill="#57af0f" d="M 265.6875 37.511719 C 260.105469 37.511719 255.578125 42.039062 255.578125 47.625 L 255.578125 67.941406 L 118.058594 67.941406 L 118.058594 47.625 C 118.058594 42.039062 113.53125 37.511719 107.945312 37.511719 C 102.363281 37.511719 97.835938 42.039062 97.835938 47.625 L 97.835938 67.941406 L 65.972656 67.941406 C 50.273438 67.941406 37.5 80.710938 37.5 96.410156 L 37.5 309.074219 C 37.5 324.773438 50.273438 337.546875 65.972656 337.546875 L 307.144531 337.546875 C 322.839844 337.546875 335.613281 324.773438 335.613281 309.074219 L 335.613281 96.410156 C 335.613281 80.710938 322.839844 67.941406 307.144531 67.941406 L 275.796875 67.941406 L 275.796875 47.625 C 275.796875 42.039062 271.273438 37.511719 265.6875 37.511719 Z M 97.835938 82.445312 L 97.835938 94.996094 C 97.835938 100.582031 102.363281 105.105469 107.945312 105.105469 C 113.53125 105.105469 118.058594 100.582031 118.058594 94.996094 L 118.058594 82.445312 C 121.722656 85.398438 124.066406 89.921875 124.066406 94.996094 C 124.066406 103.898438 116.847656 111.117188 107.945312 111.117188 C 99.042969 111.117188 91.828125 103.898438 91.828125 94.996094 C 91.828125 89.921875 94.171875 85.398438 97.835938 82.445312 Z M 321.585938 309.074219 C 321.585938 317.039062 315.105469 323.519531 307.144531 323.519531 L 65.972656 323.519531 C 58.007812 323.519531 51.527344 317.039062 51.527344 309.074219 L 51.527344 161.289062 L 321.585938 161.289062 Z M 281.804688 94.996094 C 281.804688 103.898438 274.589844 111.117188 265.6875 111.117188 C 256.785156 111.117188 249.566406 103.898438 249.566406 94.996094 C 249.566406 89.921875 251.910156 85.398438 255.574219 82.445312 L 255.574219 94.996094 C 255.574219 100.578125 260.101562 105.105469 265.6875 105.105469 C 271.269531 105.105469 275.796875 100.578125 275.796875 94.996094 L 275.796875 82.441406 C 279.460938 85.398438 281.804688 89.921875 281.804688 94.996094 Z M 281.804688 94.996094 " fill-opacity="1" fill-rule="nonzero"/></g><path fill="#57af0f" d="M 214.574219 263.351562 L 242.824219 235.101562 C 245.5625 232.363281 245.5625 227.921875 242.824219 225.183594 C 240.082031 222.445312 235.644531 222.445312 232.902344 225.183594 L 214.574219 243.515625 L 207.210938 236.152344 C 204.472656 233.414062 200.03125 233.414062 197.292969 236.152344 C 194.550781 238.890625 194.550781 243.332031 197.292969 246.070312 Z M 214.574219 263.351562 " fill-opacity="1" fill-rule="nonzero"/></svg>